<svg width="205" height="299" viewBox="0 0 205 299" fill="none" xmlns="http://www.w3.org/2000/svg">
<g opacity="0.5">
<g opacity="0.5">
<path d="M118.118 152.518C112.078 142.056 98.6847 138.477 88.2087 144.525C77.7327 150.573 74.1393 163.96 80.1796 174.422C86.2242 184.891 99.6098 188.47 110.088 182.42C120.565 176.371 124.163 162.987 118.118 152.518Z" fill="white"/>
<path d="M183.471 96.7435C172.997 102.791 169.401 116.179 175.442 126.643C181.488 137.113 194.876 140.686 205.35 134.639C215.827 128.59 219.426 115.209 213.381 104.739C207.34 94.2755 193.95 90.6938 183.471 96.7435Z" fill="white"/>
<path d="M189.236 144.596C187.061 143.802 184.211 143.074 181.041 142.416C171.409 138.628 160.056 139.134 150.21 144.819C141.448 149.878 135.646 158.021 133.386 166.964C131.762 171.456 130.453 175.682 129.899 178.856L129.52 180.965C127.743 190.792 125.53 203.02 133.627 216.926C141.148 229.84 158.108 234.095 171.427 226.405C175.127 224.279 178.302 221.353 180.703 217.856C183.105 214.359 184.667 210.385 185.27 206.243C189.158 207.793 193.383 208.427 197.613 208.096C201.844 207.764 205.966 206.476 209.658 204.333C222.971 196.646 227.765 179.834 220.343 166.861C212.348 152.895 200.65 148.699 191.253 145.323L189.236 144.596Z" fill="white"/>
<path d="M146.365 132.602C156.842 126.553 159.737 111.955 152.833 99.9956C145.928 88.0361 131.837 83.2444 121.361 89.293C110.884 95.3416 107.989 109.94 114.894 121.899C121.799 133.859 135.889 138.651 146.365 132.602Z" fill="white"/>
</g>
</g>
</svg>
