<svg width="196" height="326" viewBox="0 0 196 326" fill="none" xmlns="http://www.w3.org/2000/svg">
<g opacity="0.5">
<g opacity="0.5">
<path d="M18.0531 138.31C24.6451 126.893 20.7194 112.281 9.28647 105.68C-2.14642 99.0797 -16.759 102.988 -23.3511 114.406C-29.9479 125.832 -26.0259 140.435 -14.5909 147.037C-3.15599 153.639 11.4563 149.736 18.0531 138.31Z" fill="white"/>
<path d="M106.428 169.643C94.9967 163.043 80.3811 166.951 73.7884 178.37C67.1909 189.797 71.1193 204.4 82.5507 211C93.9842 217.601 108.595 213.701 115.193 202.274C121.785 190.855 117.864 176.245 106.428 169.643Z" fill="white"/>
<path d="M64.3471 201.203C63.9109 198.714 63.0435 195.623 61.9359 192.268C60.2597 181.098 53.5864 170.644 42.8413 164.44C33.2779 158.919 22.4158 157.879 12.7302 160.623C7.59881 161.54 2.89011 162.608 -0.411671 163.817L-2.61185 164.609C-12.8689 168.292 -25.6341 172.872 -34.3592 188.113C-42.4598 202.268 -37.2271 220.62 -22.6917 229.012C-18.6629 231.349 -14.1651 232.753 -9.54942 233.114C-4.9337 233.476 -0.324783 232.784 3.91779 231.094C4.57492 235.614 6.28094 239.953 8.90265 243.77C11.5244 247.588 14.9908 250.781 19.0313 253.101C33.5607 261.489 52.067 256.846 60.2783 242.752C69.115 227.576 66.6971 214.229 64.7603 203.506L64.3471 201.203Z" fill="white"/>
<path d="M52.2896 154.14C63.7231 160.741 79.1004 155.512 86.6359 142.46C94.1714 129.408 91.0115 113.476 79.5781 106.875C68.1446 100.274 52.7672 105.503 45.2317 118.555C37.6963 131.607 40.8562 147.539 52.2896 154.14Z" fill="white"/>
</g>
</g>
</svg>
