<svg width="32" height="32" viewBox="0 0 32 32" fill="none" xmlns="http://www.w3.org/2000/svg">
<path d="M15.5468 11.4993C13.318 11.4993 11.4992 13.3181 11.4992 15.5469C11.4992 17.7757 13.318 19.5946 15.5468 19.5946C17.7756 19.5946 19.5944 17.7757 19.5944 15.5469C19.5944 13.3181 17.7756 11.4993 15.5468 11.4993ZM27.6867 15.5469C27.6867 13.8708 27.7019 12.2098 27.6077 10.5367C27.5136 8.59337 27.0703 6.86864 25.6492 5.44757C24.2251 4.02345 22.5034 3.58316 20.56 3.48903C18.8839 3.3949 17.2229 3.41008 15.5498 3.41008C13.8737 3.41008 12.2127 3.3949 10.5396 3.48903C8.59629 3.58316 6.87157 4.02649 5.45049 5.44757C4.02638 6.87168 3.58609 8.59337 3.49196 10.5367C3.39783 12.2129 3.41301 13.8738 3.41301 15.5469C3.41301 17.22 3.39783 18.884 3.49196 20.5571C3.58609 22.5005 4.02942 24.2252 5.45049 25.6463C6.87461 27.0704 8.59629 27.5107 10.5396 27.6048C12.2158 27.6989 13.8767 27.6838 15.5498 27.6838C17.226 27.6838 18.8869 27.6989 20.56 27.6048C22.5034 27.5107 24.2281 27.0674 25.6492 25.6463C27.0733 24.2222 27.5136 22.5005 27.6077 20.5571C27.7049 18.884 27.6867 17.2231 27.6867 15.5469ZM15.5468 21.7748C12.1004 21.7748 9.31898 18.9933 9.31898 15.5469C9.31898 12.1005 12.1004 9.31909 15.5468 9.31909C18.9932 9.31909 21.7746 12.1005 21.7746 15.5469C21.7746 18.9933 18.9932 21.7748 15.5468 21.7748ZM22.0297 10.5185C21.225 10.5185 20.5752 9.86869 20.5752 9.06402C20.5752 8.25935 21.225 7.60954 22.0297 7.60954C22.8344 7.60954 23.4842 8.25935 23.4842 9.06402C23.4844 9.25509 23.447 9.44434 23.374 9.62091C23.3009 9.79748 23.1938 9.95792 23.0587 10.093C22.9236 10.2281 22.7632 10.3353 22.5866 10.4083C22.41 10.4813 22.2208 10.5187 22.0297 10.5185Z" fill="#A0007D"/>
</svg>
