<svg width="74" height="73" viewBox="0 0 74 73" fill="none" xmlns="http://www.w3.org/2000/svg">
<path d="M54.0333 29.5143C54.0333 20.0699 46.7022 12.3877 37.6886 12.3877C28.6749 12.3877 21.3428 20.0699 21.3428 29.5184C21.3459 29.9898 21.573 41.2886 34.6648 61.1973C34.9343 61.7432 35.3428 62.2109 35.8502 62.5546C36.3577 62.8982 36.9468 63.1062 37.5601 63.1582C39.4512 63.1582 40.74 61.104 40.8654 60.8952C54.0405 40.9743 54.0405 29.9635 54.0333 29.5143ZM37.6886 36.4118C36.2487 36.4118 34.8412 35.9906 33.644 35.2014C32.4469 34.4123 31.5138 33.2907 30.9628 31.9784C30.4119 30.6661 30.2678 29.2221 30.5488 27.829C30.8297 26.436 31.5232 25.1564 32.5414 24.1521C33.5595 23.1478 34.8568 22.4639 36.269 22.1869C37.6812 21.9099 39.1449 22.0523 40.4751 22.596C41.8053 23.1397 42.9422 24.0603 43.7419 25.2414C44.5417 26.4225 44.9685 27.811 44.9683 29.2314C44.9661 31.1353 44.1984 32.9606 42.8336 34.3067C41.4689 35.6528 39.6185 36.4099 37.6886 36.4118Z" fill="#D22F27"/>
<path d="M54.0334 29.5143C54.0334 20.0699 46.7023 12.3877 37.6887 12.3877C36.3467 12.3934 35.0112 12.5723 33.7163 12.92C42.3445 13.3762 49.2358 20.8516 49.2358 30.004C49.2419 30.4532 49.2419 41.464 36.0668 61.3839C35.8895 61.6695 35.6881 61.9398 35.4646 62.1919C35.7293 62.485 36.0517 62.7218 36.4121 62.8881C36.7726 63.0544 37.1635 63.1466 37.5612 63.1592C39.4513 63.1592 40.7401 61.104 40.8655 60.8952C54.0406 40.9743 54.0406 29.9635 54.0334 29.5143Z" fill="#EA5A47"/>
<path d="M37.6884 36.4118C36.2486 36.4118 34.8411 35.9906 33.6439 35.2015C32.4468 34.4123 31.5137 33.2907 30.9627 31.9784C30.4118 30.6661 30.2677 29.2221 30.5486 27.8291C30.8296 26.436 31.5231 25.1564 32.5412 24.1521C33.5594 23.1478 34.8567 22.4639 36.2689 22.1869C37.6811 21.91 39.1448 22.0523 40.475 22.596C41.8052 23.1397 42.942 24.0603 43.7418 25.2414C44.5416 26.4225 44.9684 27.8111 44.9682 29.2315C44.966 31.1353 44.1983 32.9606 42.8335 34.3067C41.4688 35.6529 39.6184 36.4099 37.6884 36.4118Z" fill="#171717"/>
</svg>
