<svg width="29" height="29" viewBox="0 0 29 29" fill="none" xmlns="http://www.w3.org/2000/svg">
<path d="M10.8309 21.1106C13.7693 17.9203 16.6104 8.74547 10.0022 2.6591C3.394 -3.42728 -2.91146 2.99322 4.4346 9.75917" fill="#AF773F"/>
<path d="M18.9922 2.65976C18.6254 2.99667 18.2777 3.35388 17.9508 3.7297C16.8288 3.38893 15.6625 3.2158 14.4899 3.21591C8.19945 3.21591 3.1001 8.15962 3.1001 13.4233C3.1001 14.1312 3.19248 14.821 3.36761 15.4848C3.69018 16.7075 3.84056 17.968 3.8439 19.2325C3.84396 19.2494 3.84407 19.2663 3.8443 19.2833C3.87766 21.7502 5.8918 23.7658 8.35873 23.8004C9.56523 23.8172 10.6663 23.3673 11.4936 22.62C12.4485 22.8374 13.4529 22.954 14.49 22.954C15.5271 22.954 16.5315 22.8374 17.4863 22.62C18.3135 23.3673 19.4146 23.8172 20.6211 23.8004C23.088 23.7659 25.1022 21.7503 25.1356 19.2833C25.1358 19.2663 25.1359 19.2494 25.136 19.2325C25.1392 17.968 25.2897 16.7073 25.6123 15.4846C25.7899 14.8119 25.8798 14.119 25.8797 13.4232C25.8797 12.0447 25.5294 10.6882 24.9 9.43659C31.7016 2.79955 25.4983 -3.32308 18.9922 2.65976Z" fill="#D19B61"/>
<path d="M23.4621 11.3242C23.7903 9.65157 22.7005 8.02955 21.0279 7.70132C19.3553 7.37309 17.7333 8.46291 17.405 10.1355V10.1357L17.405 10.1356C17.0729 11.241 17.2668 11.5942 17.1276 12.6568C16.9789 13.7918 16.7888 13.5042 16.5246 14.8502C16.1307 16.8576 17.4386 18.8043 19.446 19.1982C21.4181 19.5853 23.3304 18.3293 23.7707 16.3817C23.779 16.3481 23.7869 16.3134 23.7941 16.2768C24.2004 14.206 23.0893 13.2235 23.4621 11.3242Z" fill="#AF773F"/>
<path d="M16.7538 25.1008C16.7538 26.8344 15.7402 28.2397 14.4898 28.2397C13.2394 28.2397 12.2257 26.8344 12.2257 25.1008C12.2257 23.3672 13.2394 21.9618 14.4898 21.9618C15.7402 21.9618 16.7538 23.3672 16.7538 25.1008ZM23.7698 7.66652L23.9405 7.36411C27.8899 3.73232 24.5051 0.280355 20.9523 3.54733C20.5943 3.87652 20.2887 4.22288 20.0286 4.58085C21.5107 5.35745 22.7894 6.4228 23.7698 7.66652ZM5.04998 7.35953L5.21752 7.65689C6.19922 6.41448 7.47862 5.35048 8.96118 4.57547C8.702 4.21863 8.39755 3.87341 8.04111 3.54512C4.49094 0.275314 1.10343 3.72461 5.04998 7.35953Z" fill="#FFA1E0"/>
<path d="M20.8056 20.0888C20.3764 18.4869 19.1764 17.3146 17.7655 16.9231V13.7623C17.7655 11.953 16.2988 10.4863 14.4896 10.4863C12.6804 10.4863 11.2137 11.953 11.2137 13.7623V16.9231C9.80284 17.3146 8.60285 18.4869 8.17363 20.0888C7.54763 22.425 8.79769 24.7897 10.9656 25.3706C12.1495 25.6878 13.3616 25.4063 14.3206 24.7059V21.9618H14.6587V24.7059C15.6177 25.4063 16.8298 25.6878 18.0137 25.3706C20.1816 24.7897 21.4316 22.4249 20.8056 20.0888Z" fill="#EADFD6"/>
<path d="M10.8082 22.954C10.8082 22.9003 10.8296 22.8487 10.8676 22.8107C10.9056 22.7727 10.9571 22.7513 11.0109 22.7513C11.0646 22.7513 11.1162 22.7727 11.1542 22.8107C11.1922 22.8487 11.2135 22.9003 11.2135 22.954C11.2135 23.0078 11.1922 23.0593 11.1542 23.0973C11.1162 23.1353 11.0646 23.1567 11.0109 23.1567C10.9571 23.1567 10.9056 23.1353 10.8676 23.0973C10.8296 23.0593 10.8082 23.0078 10.8082 22.954ZM10.5426 20.9223C10.5963 20.9223 10.6479 20.9009 10.6859 20.8629C10.7239 20.8249 10.7452 20.7733 10.7452 20.7196C10.7452 20.6658 10.7239 20.6143 10.6859 20.5763C10.6479 20.5383 10.5963 20.5169 10.5426 20.5169C10.4888 20.5169 10.4373 20.5383 10.3993 20.5763C10.3613 20.6143 10.3399 20.6658 10.3399 20.7196C10.3399 20.7733 10.3613 20.8249 10.3993 20.8629C10.4373 20.9009 10.4888 20.9223 10.5426 20.9223ZM9.30276 22.3672C9.35651 22.3672 9.40805 22.3458 9.44606 22.3078C9.48407 22.2698 9.50542 22.2182 9.50542 22.1645C9.50542 22.1107 9.48407 22.0592 9.44606 22.0212C9.40805 21.9832 9.35651 21.9618 9.30276 21.9618C9.24901 21.9618 9.19746 21.9832 9.15946 22.0212C9.12145 22.0592 9.1001 22.1107 9.1001 22.1645C9.1001 22.2182 9.12145 22.2698 9.15946 22.3078C9.19746 22.3458 9.24901 22.3672 9.30276 22.3672ZM17.9486 20.5169C17.8948 20.5169 17.8433 20.5382 17.8052 20.5762C17.7672 20.6142 17.7459 20.6658 17.7459 20.7195C17.7459 20.7733 17.7672 20.8248 17.8052 20.8628C17.8433 20.9008 17.8948 20.9222 17.9486 20.9222C18.0023 20.9222 18.0538 20.9008 18.0919 20.8628C18.1299 20.8248 18.1512 20.7733 18.1512 20.7195C18.1512 20.6658 18.1299 20.6142 18.0919 20.5762C18.0538 20.5382 18.0023 20.5169 17.9486 20.5169ZM18.4169 22.7513C18.3631 22.7513 18.3116 22.7727 18.2736 22.8107C18.2355 22.8487 18.2142 22.9003 18.2142 22.954C18.2142 23.0078 18.2355 23.0593 18.2736 23.0973C18.3116 23.1353 18.3631 23.1567 18.4169 23.1567C18.4706 23.1567 18.5222 23.1353 18.5602 23.0973C18.5982 23.0593 18.6195 23.0078 18.6195 22.954C18.6195 22.9003 18.5982 22.8487 18.5602 22.8107C18.5222 22.7727 18.4706 22.7513 18.4169 22.7513ZM19.6567 21.3064C19.6029 21.3064 19.5514 21.3278 19.5134 21.3658C19.4754 21.4038 19.454 21.4554 19.454 21.5091C19.454 21.5629 19.4754 21.6144 19.5134 21.6524C19.5514 21.6904 19.6029 21.7118 19.6567 21.7118C19.7104 21.7118 19.762 21.6904 19.8 21.6524C19.838 21.6144 19.8593 21.5629 19.8593 21.5091C19.8593 21.4554 19.838 21.4038 19.8 21.3658C19.762 21.3278 19.7104 21.3064 19.6567 21.3064Z" fill="#AF773F"/>
<path d="M8.50281 11.9074C9.31526 11.9074 9.97388 12.566 9.97388 13.3785V15.5682C9.97388 16.3806 9.31526 17.0392 8.50281 17.0392C7.69036 17.0392 7.03174 16.3806 7.03174 15.5682V13.3785C7.03174 12.566 7.69036 11.9074 8.50281 11.9074ZM20.4766 11.9074C19.6641 11.9074 19.0055 12.566 19.0055 13.3785V15.5682C19.0055 16.3806 19.6641 17.0392 20.4766 17.0392C21.289 17.0392 21.9477 16.3806 21.9477 15.5682V13.3785C21.9477 12.566 21.289 11.9074 20.4766 11.9074ZM15.7528 19.8394C15.7528 19.8394 15.1304 19.8616 14.508 19.8708L13.2633 19.8394C12.9906 19.834 12.7134 19.9488 12.5264 20.1758C12.2016 20.5699 12.2579 21.1527 12.652 21.4775L13.2633 21.9812C13.2633 21.9812 13.4189 22.1093 13.6523 22.2164C13.769 22.2549 13.9052 22.3152 14.051 22.3521L14.3208 22.3842V24.7059C14.3782 24.6641 14.4345 24.6208 14.4898 24.5763C14.5451 24.6208 14.6014 24.6641 14.6588 24.7059V22.4072C14.7633 22.3976 14.8664 22.3723 14.9651 22.3652C15.111 22.3632 15.2471 22.275 15.3638 22.2359C15.5972 22.1335 15.7528 21.9812 15.7528 21.9812L16.4023 21.3452C16.4892 21.2597 16.5573 21.1571 16.6023 21.0438C16.6473 20.9305 16.6682 20.8091 16.6637 20.6873C16.6462 20.2016 16.2384 19.822 15.7528 19.8394Z" fill="#2B3B47"/>
</svg>
