<svg width="19" height="19" viewBox="0 0 19 19" fill="none" xmlns="http://www.w3.org/2000/svg">
<path d="M17.0945 5.70236C17.0043 5.3678 16.8281 5.0627 16.5833 4.81741C16.3386 4.57212 16.0339 4.39521 15.6996 4.30428C14.4598 3.96386 9.50002 3.95832 9.50002 3.95832C9.50002 3.95832 4.54102 3.95278 3.30048 4.27815C2.96633 4.37327 2.66225 4.55268 2.41742 4.79918C2.1726 5.04567 1.99524 5.35096 1.90239 5.68574C1.57543 6.92549 1.57227 9.49682 1.57227 9.49682C1.57227 9.49682 1.5691 12.0808 1.89368 13.3079C2.07577 13.9864 2.61014 14.5223 3.28939 14.7052C4.54181 15.0456 9.48814 15.0512 9.48814 15.0512C9.48814 15.0512 14.4479 15.0567 15.6877 14.7321C16.0222 14.6413 16.3271 14.4648 16.5725 14.22C16.8178 13.9753 16.995 13.6707 17.0866 13.3364C17.4143 12.0974 17.4167 9.5269 17.4167 9.5269C17.4167 9.5269 17.4325 6.94211 17.0945 5.70236ZM7.91352 11.8789L7.91748 7.12894L12.0397 9.5079L7.91352 11.8789Z" fill="black"/>
</svg>
