<svg width="34" height="34" viewBox="0 0 34 34" fill="none" xmlns="http://www.w3.org/2000/svg">
<path d="M25.1745 7.06806H8.68498C5.44842 7.06806 2.82666 9.66156 2.82666 12.8614V21.0136C2.82666 24.2134 5.44983 26.8083 8.68498 26.8083H25.1745C28.4111 26.8083 31.0328 24.2134 31.0328 21.0136V12.8614C31.0328 9.66156 28.4096 7.06665 25.1745 7.06665V7.06806ZM21.2129 17.3332L13.5003 20.9726C13.4532 20.9952 13.4012 21.0056 13.3491 21.0027C13.2969 20.9999 13.2464 20.9839 13.2021 20.9563C13.1578 20.9286 13.1212 20.8902 13.0958 20.8446C13.0703 20.799 13.0568 20.7478 13.0565 20.6956V13.1921C13.0574 13.1396 13.0716 13.0882 13.0978 13.0427C13.1239 12.9972 13.1612 12.9591 13.206 12.9319C13.2509 12.9046 13.3019 12.8892 13.3543 12.887C13.4068 12.8848 13.4589 12.8959 13.5059 12.9193L21.2199 16.7848C21.2713 16.8104 21.3144 16.85 21.3443 16.8991C21.3742 16.9481 21.3897 17.0045 21.389 17.0619C21.3882 17.1193 21.3713 17.1754 21.3402 17.2236C21.309 17.2718 21.2649 17.3103 21.2129 17.3346V17.3332Z" fill="#DF2424"/>
</svg>
